<?xml version="1.0" standalone="no"?>
<!DOCTYPE svg PUBLIC "-//W3C//DTD SVG 20010904//EN"
 "http://www.w3.org/TR/2001/REC-SVG-20010904/DTD/svg10.dtd">
<svg version="1.0" xmlns="http://www.w3.org/2000/svg"
 width="455.000000pt" height="286.000000pt" viewBox="0 0 455.000000 286.000000"
 preserveAspectRatio="xMidYMid meet">

<g transform="translate(0.000000,286.000000) scale(0.100000,-0.100000)"
fill="#000000" stroke="none">
<path d="M1413 2704 c-10 -5 -13 -139 -13 -625 l0 -619 325 -1 c179 -1 330 -3
335 -4 6 -1 17 -3 27 -4 11 -1 0 -18 -38 -59 -73 -76 -129 -147 -129 -160 0
-20 40 -23 365 -20 384 4 367 -6 245 140 -44 53 -80 99 -80 102 0 3 155 6 344
6 382 0 356 -5 356 69 0 20 -6 46 -14 56 -12 16 -16 17 -30 6 -9 -8 -16 -28
-16 -47 l0 -34 -362 -2 c-337 -3 -363 -4 -366 -21 -2 -10 28 -54 78 -113 46
-52 80 -97 78 -100 -3 -2 -118 -3 -256 -2 l-251 3 89 95 c89 95 104 122 74
134 -9 3 -175 6 -370 6 l-354 0 0 570 0 570 815 0 815 0 0 -485 0 -485 -635 0
c-508 0 -637 3 -641 13 -2 7 14 67 36 134 22 67 40 135 40 151 0 31 -42 92
-63 92 -7 0 -19 5 -27 10 -12 8 -9 16 22 47 67 70 69 109 8 252 -17 40 -29 79
-26 87 4 12 82 14 470 14 311 0 467 -3 471 -10 4 -6 -10 -45 -31 -88 -60 -125
-55 -197 16 -239 l31 -18 -41 -35 c-60 -51 -63 -91 -16 -206 20 -48 36 -94 36
-101 0 -10 -82 -13 -387 -15 l-388 -3 -3 -23 -4 -23 405 3 c435 3 437 4 437
55 0 14 -14 57 -31 96 -18 40 -34 90 -37 113 -4 43 1 50 82 107 14 10 26 24
26 31 0 7 -25 30 -55 50 -49 32 -55 40 -55 71 0 19 18 75 40 124 46 101 47
114 20 141 -19 19 -33 20 -512 20 -271 0 -498 -4 -504 -8 -20 -13 -35 -52 -29
-75 4 -12 22 -61 41 -108 19 -48 34 -98 34 -111 0 -16 -19 -42 -55 -78 -30
-30 -55 -59 -55 -65 0 -5 27 -27 60 -47 73 -45 74 -52 25 -198 -34 -100 -43
-163 -27 -186 21 -33 50 -34 710 -34 593 0 660 2 666 16 3 9 6 249 6 534 0
493 -1 520 -18 529 -19 10 -1685 15 -1709 5z"/>
<path d="M2310 2263 c-18 -38 -64 -131 -103 -208 -71 -141 -80 -181 -40 -173
21 4 227 414 219 435 -3 7 -14 13 -25 13 -13 0 -28 -19 -51 -67z"/>
<path d="M1972 2182 c-104 -64 -112 -82 -50 -116 21 -12 63 -36 93 -54 61 -36
90 -38 90 -7 0 15 -19 30 -70 57 -38 20 -70 40 -69 45 1 4 32 26 70 48 48 29
69 47 69 60 0 36 -38 26 -133 -33z"/>
<path d="M2427 2233 c-20 -19 0 -42 68 -81 41 -24 75 -46 75 -48 0 -2 -34 -20
-75 -41 -61 -30 -75 -41 -73 -57 2 -12 10 -22 19 -24 20 -4 199 97 206 115 8
21 -13 40 -104 93 -84 49 -103 57 -116 43z"/>
<path d="M887 898 c-4 -18 -18 -123 -32 -233 -14 -110 -28 -208 -31 -218 -5
-15 -1 -18 18 -15 18 2 24 11 28 38 4 31 9 35 39 38 38 4 51 -9 51 -50 0 -18
5 -28 15 -28 19 0 19 5 0 159 -8 70 -21 173 -28 231 -11 95 -14 105 -33 108
-17 2 -23 -3 -27 -30z m34 -140 c5 -19 24 -200 20 -203 -8 -9 -50 -5 -56 4 -8
14 17 201 27 201 4 0 8 -1 9 -2z"/>
<path d="M1180 692 c0 -172 3 -241 12 -250 7 -7 36 -12 65 -12 46 0 53 3 53
19 0 16 -8 20 -42 23 l-43 3 -3 228 c-2 219 -3 227 -22 227 -19 0 -20 -7 -20
-238z"/>
<path d="M1519 917 c-35 -27 -39 -54 -39 -247 0 -189 0 -191 25 -215 32 -33
86 -34 115 -3 17 18 20 35 20 110 l0 88 -35 0 c-39 0 -49 -24 -15 -35 16 -5
20 -15 20 -56 0 -61 -13 -89 -43 -89 -44 0 -47 14 -47 206 0 153 3 185 16 198
38 39 74 5 74 -70 0 -41 4 -54 15 -54 12 0 15 14 15 65 0 57 -3 69 -25 90 -26
27 -70 32 -96 12z"/>
<path d="M1865 905 c-25 -24 -25 -25 -25 -223 0 -186 1 -201 21 -226 29 -37
89 -37 118 0 20 25 21 40 21 226 0 198 0 199 -25 223 -15 16 -36 25 -55 25
-19 0 -40 -9 -55 -25z m83 -27 c13 -13 18 -361 6 -392 -7 -19 -45 -21 -62 -4
-8 8 -12 66 -12 194 0 153 3 185 16 198 19 19 36 20 52 4z"/>
<path d="M2221 693 c-18 -131 -34 -244 -36 -250 -3 -8 5 -13 20 -13 21 0 25 5
25 28 0 40 13 54 46 50 25 -3 30 -8 34 -38 4 -27 10 -36 29 -38 22 -3 23 -1
17 30 -5 27 -66 457 -66 466 0 1 -8 2 -19 2 -16 0 -21 -24 -50 -237z m73 -70
c6 -72 6 -73 -18 -73 -14 0 -27 3 -29 8 -4 5 17 189 24 212 3 11 17 -78 23
-147z"/>
<path d="M2550 681 c0 -244 1 -251 20 -251 18 0 20 7 20 84 0 65 4 89 18 106
l17 22 20 -22 c16 -17 21 -40 24 -106 3 -75 5 -84 22 -84 17 0 19 8 19 84 0
72 -3 88 -25 120 -14 20 -25 39 -25 42 0 3 11 22 25 42 19 28 25 49 25 94 0
80 -26 109 -103 116 l-57 4 0 -251z m110 180 c19 -36 11 -86 -21 -134 -17 -26
-35 -47 -40 -47 -5 0 -9 45 -9 100 l0 100 30 0 c19 0 33 -7 40 -19z"/>
<path d="M2907 923 c-11 -11 -8 -452 3 -474 9 -15 22 -19 65 -19 48 0 55 3 55
19 0 16 -8 20 -42 23 l-43 3 0 90 0 90 33 3 c23 2 32 8 32 22 0 14 -9 20 -32
22 l-33 3 0 90 0 90 43 3 c34 3 42 7 42 23 0 17 -7 19 -58 19 -32 0 -62 -3
-65 -7z"/>
<path d="M3216 732 c-8 -234 -2 -302 25 -302 18 0 19 10 19 151 0 97 4 148 10
144 6 -3 10 -21 10 -38 1 -18 11 -81 23 -142 21 -104 24 -110 47 -110 l25 0 0
245 c0 232 -1 245 -19 245 -17 0 -18 -10 -17 -147 1 -90 -2 -149 -8 -153 -6
-3 -13 4 -16 17 -8 39 -34 180 -43 233 -6 40 -12 51 -28 53 -20 3 -21 -2 -28
-196z"/>
<path d="M3627 923 c-3 -5 -8 -44 -11 -88 -4 -44 -16 -144 -27 -222 -23 -170
-23 -183 -5 -183 9 0 17 16 21 41 7 39 8 40 43 37 34 -3 37 -6 42 -38 4 -27
10 -36 28 -38 19 -3 23 0 18 15 -3 10 -14 88 -25 173 -38 292 -41 310 -62 310
-10 0 -20 -3 -22 -7z m42 -261 c6 -51 9 -97 6 -102 -4 -6 -18 -10 -32 -10
l-26 0 7 86 c12 164 27 172 45 26z"/>
<path d="M101 217 c-1 -16 -5 -26 -11 -22 -12 7 -12 -22 0 -50 8 -19 9 -19 9
3 1 28 21 29 21 0 0 -32 7 -19 13 27 4 22 4 34 0 26 -4 -10 -10 -5 -19 15
l-12 29 -1 -28z"/>
<path d="M213 195 c-1 -27 1 -42 4 -32 7 26 21 20 26 -10 2 -16 4 -1 4 32 0
33 -2 48 -4 33 -2 -16 -8 -28 -13 -28 -5 0 -11 12 -13 28 -2 15 -4 5 -4 -23z"/>
<path d="M520 191 c0 -28 3 -52 8 -54 4 -3 7 19 7 49 0 30 -3 54 -7 54 -5 0
-8 -22 -8 -49z"/>
<path d="M710 224 c0 -12 -3 -36 -6 -53 -6 -26 -4 -30 10 -25 18 7 22 59 6 84
-8 12 -10 11 -10 -6z"/>
<path d="M902 188 c2 -39 7 -53 18 -53 8 0 15 7 16 15 0 9 -1 10 -3 3 -10 -29
-23 -10 -23 32 0 45 14 61 24 28 4 -14 4 -14 3 2 -1 11 -10 21 -20 23 -16 3
-18 -3 -15 -50z"/>
<path d="M1007 233 c-11 -11 -8 -91 4 -99 6 -3 16 -1 22 5 9 9 8 11 -7 5 -16
-6 -18 -2 -15 45 2 28 4 51 3 51 0 0 -4 -3 -7 -7z"/>
<path d="M1112 190 c0 -30 3 -46 5 -36 3 11 11 26 19 34 16 16 18 38 4 47 -5
3 -7 0 -4 -9 3 -8 2 -21 -2 -28 -6 -9 -11 -4 -15 17 -5 22 -7 16 -7 -25z"/>
<path d="M1303 185 c0 -33 2 -45 4 -27 2 18 2 45 0 60 -2 15 -4 0 -4 -33z"/>
<path d="M1393 185 c0 -33 2 -48 4 -32 2 15 8 27 13 27 5 0 11 -12 13 -27 2
-16 4 -1 4 32 0 33 -2 48 -4 33 -2 -16 -8 -28 -13 -28 -5 0 -11 12 -13 28 -2
15 -4 0 -4 -33z"/>
<path d="M1501 193 c0 -29 2 -52 7 -52 4 1 9 0 12 -1 35 -13 40 -8 40 48 0 41
-3 53 -10 42 -5 -8 -10 -25 -10 -37 0 -35 -15 -27 -27 15 l-10 37 -2 -52z"/>
<path d="M1651 224 c0 -11 3 -14 6 -6 3 7 2 16 -1 19 -3 4 -6 -2 -5 -13z"/>
<path d="M1822 187 c-2 -51 0 -58 15 -55 10 2 18 10 19 18 0 9 -1 10 -3 3 -10
-29 -22 -10 -26 40 l-3 52 -2 -58z"/>
<path d="M1846 227 c3 -10 9 -15 12 -12 3 3 0 11 -7 18 -10 9 -11 8 -5 -6z"/>
<path d="M1932 220 c0 -14 2 -19 5 -12 2 6 2 18 0 25 -3 6 -5 1 -5 -13z"/>
<path d="M2031 192 c-1 -33 3 -51 9 -47 6 3 10 2 10 -4 0 -6 7 -8 15 -5 11 5
15 20 14 58 -1 28 -4 40 -6 26 -8 -52 -16 -56 -29 -15 l-12 40 -1 -53z"/>
<path d="M2163 190 c0 -30 2 -45 4 -33 2 12 11 27 19 33 16 14 18 36 4 45 -5
3 -7 0 -4 -9 3 -8 2 -21 -2 -28 -6 -9 -11 -4 -15 17 -5 22 -7 16 -6 -25z"/>
<path d="M2260 192 c0 -28 3 -53 8 -56 8 -5 5 94 -3 103 -3 2 -5 -19 -5 -47z"/>
<path d="M2363 185 c0 -33 2 -45 4 -27 2 18 2 45 0 60 -2 15 -4 0 -4 -33z"/>
<path d="M2450 187 c0 -31 4 -57 8 -57 8 0 5 100 -3 109 -3 2 -5 -21 -5 -52z"/>
<path d="M2710 211 c0 -17 5 -31 10 -31 6 0 10 11 10 24 0 14 -4 28 -10 31 -6
4 -10 -7 -10 -24z"/>
<path d="M2811 202 c-1 -27 3 -41 9 -37 6 3 10 -1 10 -9 0 -9 4 -16 8 -16 5 0
9 24 9 53 1 28 -1 44 -4 35 -2 -10 -8 -18 -13 -18 -5 0 -11 8 -13 18 -3 9 -5
-2 -6 -26z"/>
<path d="M2922 188 c-2 -49 1 -58 16 -58 11 0 13 3 5 8 -6 4 -13 30 -16 57
l-3 50 -2 -57z"/>
<path d="M3112 187 c-2 -51 0 -58 15 -55 10 2 18 10 19 18 0 9 -1 10 -3 3 -10
-29 -22 -10 -26 40 l-3 52 -2 -58z"/>
<path d="M3137 219 c4 -13 8 -18 11 -10 2 7 -1 18 -6 23 -8 8 -9 4 -5 -13z"/>
<path d="M3322 187 c-2 -51 0 -58 16 -55 12 2 18 15 20 47 2 24 0 47 -5 52 -4
4 -6 -14 -5 -41 3 -30 0 -50 -7 -50 -5 0 -12 24 -14 53 l-3 52 -2 -58z"/>
<path d="M3630 216 c0 -14 4 -27 8 -30 5 -3 6 8 4 25 -5 35 -12 38 -12 5z"/>
<path d="M3824 226 c-11 -28 0 -91 16 -91 8 0 15 7 16 15 0 9 -1 10 -3 3 -10
-29 -23 -10 -23 32 0 43 12 60 23 33 3 -8 6 -6 6 5 1 20 -27 23 -35 3z"/>
<path d="M4030 193 c0 -31 3 -43 9 -34 7 11 11 10 20 -5 8 -15 10 -8 10 36 0
40 -3 49 -9 35 -7 -17 -9 -17 -9 -2 -1 9 -5 17 -11 17 -5 0 -10 -21 -10 -47z"/>
<path d="M4140 193 c0 -51 12 -83 24 -64 4 6 2 11 -4 11 -8 0 -11 17 -8 50 1
28 0 50 -4 50 -5 0 -8 -21 -8 -47z"/>
<path d="M4172 215 c0 -16 2 -22 5 -12 2 9 2 23 0 30 -3 6 -5 -1 -5 -18z"/>
<path d="M4254 191 c1 -39 5 -56 16 -58 10 -3 11 -2 3 4 -6 5 -14 31 -16 58
l-4 50 1 -54z"/>
<path d="M4350 191 c0 -28 4 -52 9 -55 5 -4 7 3 4 15 -4 12 0 25 8 30 12 7 12
9 0 9 -9 0 -12 8 -9 25 3 14 1 25 -3 25 -5 0 -9 -22 -9 -49z"/>
<path d="M4452 185 c0 -33 3 -51 5 -40 3 11 12 29 19 40 8 11 14 29 13 40 0
14 -2 15 -6 5 -14 -43 -16 -44 -23 -15 -6 23 -8 16 -8 -30z"/>
<path d="M1223 185 c0 -27 2 -38 4 -22 2 15 2 37 0 50 -2 12 -4 0 -4 -28z"/>
<path d="M3430 188 c0 -23 3 -29 9 -19 8 12 4 51 -5 51 -2 0 -4 -15 -4 -32z"/>
<path d="M431 193 c-7 -8 -11 -16 -8 -19 2 -2 10 2 17 11 17 20 9 27 -9 8z"/>
<path d="M320 184 c0 -8 5 -12 10 -9 6 4 8 11 5 16 -9 14 -15 11 -15 -7z"/>
<path d="M3530 185 c0 -6 6 -12 13 -12 8 0 14 6 14 12 0 6 -6 12 -14 12 -7 0
-13 -6 -13 -12z"/>
<path d="M4281 174 c0 -11 3 -14 6 -6 3 7 2 16 -1 19 -3 4 -6 -2 -5 -13z"/>
<path d="M1142 150 c0 -14 2 -19 5 -12 2 6 2 18 0 25 -3 6 -5 1 -5 -13z"/>
<path d="M1650 158 c0 -9 -6 -19 -12 -21 -10 -4 -10 -6 0 -6 14 -1 28 26 18
36 -3 4 -6 -1 -6 -9z"/>
<path d="M2700 145 c0 -17 2 -17 10 -5 9 13 11 13 20 0 8 -12 10 -12 10 5 0
14 -6 21 -20 21 -14 0 -20 -7 -20 -21z"/>
<path d="M4481 154 c0 -11 3 -14 6 -6 3 7 2 16 -1 19 -3 4 -6 -2 -5 -13z"/>
<path d="M1930 145 c0 -8 4 -15 10 -15 5 0 7 7 4 15 -4 8 -8 15 -10 15 -2 0
-4 -7 -4 -15z"/>
<path d="M3630 147 c0 -10 8 -17 18 -17 9 0 13 4 7 8 -5 4 -13 11 -17 16 -5 5
-8 2 -8 -7z"/>
<path d="M3430 140 c0 -5 5 -10 11 -10 5 0 7 5 4 10 -3 6 -8 10 -11 10 -2 0
-4 -4 -4 -10z"/>
<path d="M3228 133 c7 -3 16 -2 19 1 4 3 -2 6 -13 5 -11 0 -14 -3 -6 -6z"/>
</g>
</svg>
